<?xml version="1.0" encoding="UTF-8"?>
<svg id="svg1" xmlns="http://www.w3.org/2000/svg" viewBox="0 0 273.05 259.3">
  <defs>
    <style>
      .cls-1 {
        fill: #f6c812;
      }

      .cls-1, .cls-2 {
        stroke-width: 0px;
      }

      .cls-2 {
        fill: #121212;
      }
    </style>
  </defs>
  <path id="layer1" class="cls-2" d="M214.84,259.22s-13.39-.21-29.96-.21c-34.42-.21-51.84-.21-55.67-.42-2.97-.21-17.42-.42-26.13-.64-3.19,0-6.37-.21-7.22-.21s-6.8-.21-13.17-.21-13.39-.21-15.3-.21-7.86-.21-12.96-.21c-7.86,0-18.49-.42-24.01-.64-1.91,0-4.04-.21-5.95-.42-.85-.21-1.91-.21-2.34-.21-1.06,0-1.06-.42.21-.64,2.55-.42,114.1.21,121.75.64,2.76.21,8.5.21,20.61.42,5.95.21,11.69.21,13.17.21,1.27,0,6.16.21,10.84.21s11.69.21,15.72.21c4.04.21,12.96.42,19.76.42s13.6.42,15.09.42c2.34.21,2.55.21,2.12.42s-1.27.21-2.76.21c-1.27,0-2.97,0-4.04.21-1.49.64-19.55.85-19.76.64h0ZM198.9,252.42c-1.7-.42-4.04-1.27-7.01-2.97l-2.12-1.27-1.7.21c-5.95.85-10.41-2.76-10.41-8.71,0-1.91.42-3.4,1.49-5.1.85-1.49,1.91-2.12,3.4-2.97,1.06-.42,1.27-.64,3.82-.64s2.76,0,4.04.64c1.49.85,3.19,2.34,3.82,3.61.21.42.64,1.7.85,2.55.21,1.27.21,1.7,0,2.97-.21,1.49-1.06,3.4-1.91,4.46-.21.42-.42.64-.42.85.21.42,4.25,2.34,6.16,2.97,3.4,1.06,4.89,1.27,7.65.42,1.27-.42,1.49-.42,1.7,0,1.06,1.49-1.27,2.76-5.52,2.97-1.7.42-2.97.21-3.82,0h0ZM188.7,245.62c1.06-.42,2.34-1.91,2.76-3.19.42-1.49.42-4.04,0-5.52-.64-1.49-1.27-2.12-2.34-2.97-.85-.42-1.27-.64-2.76-.64-1.91,0-2.55.21-3.82,1.49-.85.85-1.49,2.34-1.49,4.46,0,1.91.21,2.97,1.06,4.25,1.49,2.34,3.82,3.19,6.59,2.12h0ZM257.76,249.66c-1.06-.21-1.7-1.7-.85-1.91.21,0,.42-.42.64-.64s.21-3.19.42-6.37l.21-5.74-.85-.64c-.42-.42-.85-.85-.64-1.06,0-.42-.42-.42,9.14-.21.21,0,.42.21.64.64.42.85.21,2.55-.42,2.97-.42.21-.64.21-1.06-.42-.42-.64-.85-.64-1.7-.85-1.49-.21-1.7,0-1.49,2.34v1.91h1.06c.64,0,1.27,0,1.7-.21.42-.21.64-.21,1.06.21s.64.64.42,1.7c0,.64,0,1.27-.21,1.49-.21.64-1.06.42-1.7-.21-.42-.42-.85-.64-1.49-.64-.42,0-1.06.21-1.06.21-.21.21-.21,1.06-.21,2.55v2.34l.64.21c.42,0,1.06.21,1.7,0q.85-.21,1.27-.85c.42-1.06,1.06-1.27,1.7,0,.42.85.21,2.55-.42,3.19-.42.42-.64.42-4.25.42-2.12-.21-4.04-.43-4.25-.43h0ZM223.97,249.02c-2.34-.64-3.19-1.06-4.25-2.55s-1.27-2.55-1.27-7.65v-4.67l-.85-.85c-.85-.85-.85-1.27-.42-1.49h2.76c2.34,0,2.55.21,2.76.64.42.64.21,1.06-.42,1.27-.21,0-.42.21-.42.42s-.21,2.55-.21,5.1c0,4.46,0,4.89.42,5.74.64,1.27,1.49,1.7,3.19,1.7s2.76-.85,3.4-2.55c.42-1.06.42-1.7.64-5.52l.21-4.25-.85-.85c-.42-.42-.85-1.06-.85-1.06,0-.21.85-.21,2.55-.21q2.55,0,2.76.42c.42.64.21,1.06-.42,1.49q-.42.42-.42,3.82c0,7.01-.85,9.35-4.04,10.84-.85.21-3.19.64-4.25.21h0ZM149.61,247.75c-.21-.21-.21-.64-.42-.85-.21-.42,0-.64.42-1.06.64-.42.64-.64.64-2.34,0-1.06.21-3.61.21-5.95v-4.25l-.64-.64c-.64-.64-.85-1.49-.42-1.7.21-.21,4.67-.21,5.1.21.42.42.21,1.27-.42,1.7l-.64.42v5.31c0,7.86-.21,7.01.64,7.44.64.21.64.42.64,1.06s-.21.85-.42.85c-.21.21-4.46,0-4.67-.21h0ZM117.31,247.11c-.42-.42-.21-1.49.21-1.7.64-.42.64-1.7.64-6.8,0-4.04,0-5.1-.21-5.31s-.85-.21-1.7-.21c-1.27,0-1.49.21-2.12.64-.42.42-.64.64-1.06.42-.42-.21-.64-1.27-.21-2.55.42-1.27.85-1.7,1.91-1.49.42,0,3.19.21,6.16.21,4.25,0,5.31,0,5.52.21s.21,2.76,0,3.61c-.21.64-1.06.64-1.27,0s-1.06-.85-2.34-1.06c-1.7,0-1.7-.21-1.49,6.16,0,5.31,0,5.52.42,5.95.21.21.64.21.85.42.42,0,.64.85.21,1.49l-.21.64h-2.55c-2.34-.21-2.55-.21-2.76-.64h0ZM82.25,247.32c-1.06-.21-2.55-.85-3.19-1.49-1.7-1.7-1.91-2.55-2.12-8.71l-.21-4.89-.64-.21c-.64-.21-.64-.64-.64-1.27s.42-.64,2.97-.64c2.12,0,2.55,0,2.55.42.21.42,0,.85-.64,1.49l-.64.64v3.19c0,6.16.64,8.07,2.97,8.71.85.21,1.27.21,2.12,0,1.06-.21,2.12-1.27,2.34-2.12,0-.42.21-2.55.21-4.89.21-4.67,0-5.1-.85-5.52-.64-.21-.64-1.27-.21-1.7s4.46-.21,4.89,0c.42.21.21.85-.42,1.7-.42.42-.42.64-.42,3.82,0,3.82-.21,5.95-.85,7.65-.64,1.7-2.55,3.4-4.25,3.61-.64.21-2.34.21-2.97.21h0ZM43.79,247.11s-.42-.21-.85-.21c-.85-.21-3.19-1.27-3.82-1.91-.42-.42-.64-.85-1.7-2.12-.85-1.06-1.27-3.19-1.06-5.1.21-2.34,1.06-4.04,2.76-5.95,1.7-1.7,2.97-2.34,5.74-2.55,4.04-.21,7.44,1.7,8.71,5.1.42.85.42,1.7.42,3.19,0,3.19-.64,4.89-2.76,6.8-1.06,1.06-2.55,1.91-3.82,2.12-1.7.64-3.61.85-3.61.64h0ZM47.19,244.14c1.06-.21,2.12-1.27,2.55-2.34.42-.85.42-1.27.42-3.19s-.21-2.34-.64-3.4c-.85-1.49-1.91-2.34-3.82-2.97-1.7-.64-4.46.42-5.31,1.91-1.27,2.12-.85,6.16,1.06,8.29,1.27,1.49,3.61,2.12,5.74,1.7h0ZM4.7,246.69c-1.49,0-1.7-.21-2.12-.64-.21-.42-.21-.64,0-1.27.21-.42.42-.85.64-1.06.42-.42.42-1.06,0-1.06s-.64-.42-.21-.64c.42,0,.42-.42.21-.85v-.64c0-.21.21-1.91,0-3.82v-4.04c0-.64-.21-.85-.85-1.49-.64-.64-.85-.85-.42-1.27.42-.85.85-1.06,3.61-1.06,3.4,0,4.46.21,5.52,1.27s1.49,1.91,1.06,3.4c-.21.64-.21,1.27-.42,1.27,0,0-.21.42-.21.64-.21.42,0,.64.85,1.49,1.06,1.06,1.7,2.12,1.7,3.4,0,1.7-.42,2.55-1.91,4.04-1.27,1.27-1.49,1.49-2.55,1.7-1.06.64-2.76.64-4.89.64h0ZM9.58,243.71c.85-.42,1.06-.64.85-2.12-.21-1.06-.21-1.49-.85-1.91-.85-.64-1.49-1.06-2.12-.85-.42.21-.42,4.25,0,4.46.64.64,1.49.64,2.12.42h0ZM8.73,235.42c.42-.42.42-1.7,0-2.55-.42-.85-1.27-1.06-1.49-.64-.21.42-.21,2.97,0,3.19.42.42,1.27.42,1.49,0ZM48.68,221.83h-20.4c-11.26,0-21.46,0-22.74-.21q-2.55,0-2.55-.64c0-.42.42-1.06.85-1.06.21,0,1.27-.42,4.04-1.91,1.27-.64,3.61-2.76,3.4-3.19q0-.21.21-.21c.42.21,1.7-1.49,1.91-2.55,0,0,.21-.21.21-.42.85-1.06,1.49-4.89,1.49-7.65q0-1.91-.42-1.7c-.21.21-.21,0,0-.21s.21-1.7.21-7.86c0-4.04-.21-9.77,0-12.54s0-5.1,0-5.31c0-1.06-.21-20.61-.21-31.23,0-8.29,0-12.54.21-12.96.42-.85,1.27-1.27,3.19-1.27h4.89q.64,0,.42,0c-.21.21.85.21,2.97.21h9.99c.21,0,3.82,0,7.86.21,4.25,0,11.05.21,15.09.21s9.35.21,11.9.21c2.34,0,7.22.21,10.84.21s7.86.21,9.77.21,9.77.21,17.42.42,14.24.42,14.24.42c0,0-1.49.21-3.4.21-5.52.21-55.24.85-63.11.64-3.82,0-7.22,0-7.44.21l-.42.21v24.65c0,13.6.21,29.96.21,36.33.21,11.47.21,11.69.64,13.17,1.06,2.97,2.12,4.89,4.46,7.22,1.7,1.7,4.25,3.4,6.37,4.04,1.91.64,1.49,1.49-.64,1.7-1.28.42-11.47.42-11.47.42h0ZM14.47,204.19c0-.42,0-.64.21-.64s.21,1.06,0,1.06-.21-.21-.21-.42ZM61.85,128.76c-1.91-.64-2.97-1.27-4.25-2.76-1.7-1.91-2.34-3.4-2.55-6.16-.21-3.19.85-5.95,2.76-8.07,1.49-1.49,2.76-2.12,4.67-2.55,2.76-.64,5.31-.21,7.01.85,1.91,1.27,2.97,2.97,2.97,4.89v1.27h-6.37c-4.25,0-6.37.21-6.59.21-.42.42-.42,2.76.21,4.25.85,2.76,2.34,4.67,4.67,5.74,2.97,1.49,6.59.21,7.65-2.34.42-.85.85-.85.85-.21.21.64-.85,2.12-1.7,2.97-1.91,2.34-5.74,2.97-9.35,1.91h0ZM68.86,114.95c.21-.21.21-.64,0-1.49-.64-2.34-1.91-3.61-3.82-3.82-1.49,0-2.55.42-3.61,1.49-1.06,1.27-1.91,3.19-1.49,3.82.64.42,8.71.21,8.92,0ZM115.4,128.97c-1.49-.42-2.76-1.27-4.04-2.34-2.34-2.12-3.19-4.25-3.19-7.44,0-1.91,0-2.34.64-3.61.85-1.7,3.19-4.25,4.89-5.1,2.97-1.7,7.22-1.7,10.41,0,.64.21,1.7,1.27,2.55,2.12,2.55,2.55,3.4,4.89,2.97,8.07-.21,2.12-1.06,3.82-2.76,5.31-2.55,2.55-4.46,3.4-8.07,3.19-1.27,0-2.76-.21-3.4-.21h0ZM121.35,127.7c2.34-1.49,3.61-4.25,3.61-8.07.21-2.34-.21-4.46-1.27-6.37-2.55-4.89-7.65-4.89-10.2,0-.85,1.7-1.06,2.97-1.06,5.52,0,3.61.85,5.95,2.76,7.86,2.12,2.34,3.82,2.76,6.16,1.06h0ZM17.02,128.55c-2.55-.21-3.4-.85-1.49-1.27l.85-.42.21-.21c.42,0,1.7-1.27,1.91-1.91.21-.85.21-23.16,0-24.43s-2.34-2.76-3.82-2.76c-.85,0-.42-.64.42-.85s10.62-.21,12.54,0c1.06.21,1.49.21,1.49.42s-.21.42-.85.42c-1.7.21-2.55,1.06-3.19,2.55-.21.64-.21,1.7-.21,5.74v4.89l.85.21c.42,0,3.82.21,7.44.21,6.16,0,6.59,0,6.8-.42.21-.64.21-7.65,0-9.35-.21-1.49-.42-1.7-1.06-2.55-.64-.64-1.06-1.06-1.7-1.06-.42,0-.85-.21-1.06-.21-1.7-.85,4.25-1.27,11.9-.64,2.12.21,2.55.21,2.55.42s-.21.42-.85.42c-1.27.21-2.34.85-2.97,2.12q-.42.85-.42,11.69c0,11.26,0,12.75.85,14.24.42.85,2.12,1.91,2.76,1.91s1.06.42.85.64c-.42.42-14.24.21-14.45,0-.21-.42,0-.42.64-.64,1.06-.21,2.76-1.49,3.19-2.34.42-.64.42-1.27.42-6.37,0-3.61,0-5.52-.21-5.74s-14.66-.42-15.09-.21c-.21,0-.21,2.12-.21,5.31,0,5.95.21,6.37,1.49,8.07.64.64,1.06,1.06,1.91,1.27.64.21,1.06.42,1.06.42,0,.21-.64.21-1.27.42-1.49.21-8.92.21-11.26,0h0ZM78.43,128.55c-.21-.21,0-.64.42-.64.64,0,1.7-.85,2.12-1.49q.42-.85.42-13.39c0-11.69,0-12.75-.42-13.39-.42-.85-1.06-1.49-1.91-1.49-.64-.21-.85-.64-.21-.85,1.06-.21,2.97-.42,4.46-.64,1.27-.21,1.49,0,1.7.21,0,.21.21,6.8.21,14.66,0,14.02,0,14.45.42,15.09.21.42.85.85,1.49,1.27.64.21,1.06.64,1.06.64-.21.21-9.56.42-9.77,0ZM92.02,128.76c-.21-.21-.21-.42.21-.42.64,0,1.91-.85,2.34-1.49.21-.42.42-1.06.42-1.91.21-1.7.21-23.59,0-24.65s-1.27-2.12-2.12-2.34c-.42,0-.64-.21-.64-.42s4.46-1.06,5.74-.85h.85v14.02c0,7.65,0,14.45.21,14.87.21,1.06.85,2.12,1.91,2.34.42.21.85.42.85.42,0,.21-.64.21-4.89.21-2.55.21-4.67.21-4.89.21h0ZM27.22,93.28c-9.35,0-12.11-.21-12.32-.42s-.21-2.55-.21-10.41c0-16.79-.42-52.06-.42-55.24-.21-12.75-.42-13.17-2.12-16.79C10.01,5.95,6.61,2.97,1.3,1.27.66,1.06.02.64.02.64c-.21-.64,1.06-.64,8.5-.64,4.04,0,7.44.21,7.65.21,0,0,8.92,0,19.76.21,21.04,0,26.13.21,26.13.64,0,.21-.21.42-.85.42-.42.21-1.91.64-2.97,1.27-3.82,1.91-6.8,5.31-8.29,8.92-1.27,3.4-1.27,1.7-1.06,32.08,0,15.3.21,32.08.21,37.18,0,7.86,0,9.35.21,9.56s1.06.42,2.34.42c1.06,0,3.19.21,4.67.42s3.4.21,4.04.21c1.49,0,2.97.21,2.97.64,0,.21-.21.21-.64.21-.85,0-7.22.42-8.92.42-2.34.42-14.45.42-26.56.42Z"/>
  <path class="cls-1" d="M224.82,223.53c-6.37,0-27.41-.42-30.81-.64-1.06,0-5.74-.21-10.2-.21s-11.26-.21-15.3-.21-13.81-.21-22.1-.21-16.79-.21-18.91-.21c-15.51-.42-22.95-.64-23.8-.85-.85-.21,2.34-.42,14.66-.64,17.85-.21,22.31-.21,25.92-.85,2.34-.21,6.59-1.27,7.44-1.91.21-.21.42-.21.64-.21s1.06-.42,1.91-1.06c2.34-1.49,4.04-3.19,5.1-5.31,1.49-2.76,1.49-3.19,1.49-19.12,0-7.65.21-15.51.21-17.42s.21-9.56.21-17,.21-15.51.21-18.06c0-3.82,0-4.67-.21-4.67s-1.27-.21-2.55-.42c-9.56-.64-10.62-.64-10.2-1.06.21-.21,2.55-.42,5.31-.42,4.04-.21,8.92-.21,23.16-.21,9.99,0,20.61.21,24.01.42,3.4.21,7.86.21,9.99.21s5.31.21,6.8.21,4.46.21,6.37.21c3.82,0,12.32.42,22.74.85,3.4.21,6.37.21,6.37.42,0,.42-5.31.42-31.02.42h-27.2l-.21,4.67c0,2.55-.21,11.9-.42,20.61-.21,8.92-.21,19.12-.42,22.95s-.21,11.05-.21,16.15c0,8.71,0,9.56.42,10.62,1.27,4.46,4.89,7.44,10.84,9.35,4.04,1.27,7.44,1.7,15.72,1.91,5.1.21,10.84.42,18.7.85,4.25.21,5.74.42,5.95.64s-3.61.42-9.56.42c-2.34-.21-7.65-.21-11.05-.21h0ZM261.16,130.25c-.21-.21-.42-1.27-.85-2.12-3.61-11.69-3.61-12.11-3.82-11.69,0,0-.42,1.06-.85,2.12-1.06,2.55-1.27,3.19-1.7,3.82-.21.21-.85,2.12-1.7,4.04s-1.49,3.61-1.7,3.82c-.42.64-1.27.64-1.49,0,0-.21-.85-2.55-1.7-5.52q-3.82-12.54-5.1-12.96c-1.27-.64-.64-.64,2.97-.85h4.46c1.06.21,1.06.42.21.85-.85.21-1.27.85-1.49,1.49-.21.85.21,2.34,1.7,6.8.42,1.49,1.06,3.19,1.06,3.61.21.64.42,1.06.42,1.06.21,0,.64-1.06,2.55-5.95,1.91-4.67,2.12-5.74,1.27-6.59-.21-.21-.64-.64-1.06-.64-.42-.21-.64-.21-.42-.42.21-.21,4.67-.42,7.01-.21,1.91.21,2.34.42,1.27.85-1.91.85-1.7,1.91,1.06,11.47.21.85.42,1.49.64,1.49,0,0,.21-.42.42-.85.21-.42.85-2.12,1.7-3.82.64-1.7,1.49-3.4,1.7-3.82.42-1.06.64-2.76.21-3.4-.21-.21-.64-.85-1.06-1.06s-.64-.42-.64-.64c.21-.21,2.76-.21,5.1-.21,1.27,0,1.7.21,1.7.42s-.21.42-.42.42c-1.27.21-2.97,2.97-4.67,7.01-.64,1.49-1.49,3.4-1.91,4.46s-1.06,2.34-1.06,2.55c-.21.42-.64,1.49-1.06,2.55-.85,1.7-1.06,1.91-1.49,1.91-.85.42-1.06.21-1.27,0h0ZM237.15,116.44c-1.06-2.12-3.19-4.25-5.1-5.31-3.19-1.49-7.22-1.49-10.41.21-1.91,1.06-4.04,3.19-4.89,5.1s-1.06,4.46-.42,6.59c.42,1.49,1.7,3.61,2.76,4.46,1.06,1.06,2.97,1.91,4.25,2.34,1.7.42,5.1.42,6.8,0,1.7-.42,3.4-1.27,4.67-2.76,2.34-2.34,2.97-4.04,2.97-7.22q0-1.7-.64-3.4ZM228.86,129.4c-2.55,1.27-5.1.21-7.01-2.97-1.7-2.76-1.91-8.29-.42-11.26,2.55-5.1,7.22-5.74,9.99-1.27,3.19,4.89,1.91,13.17-2.55,15.51ZM184.66,125.36c-1.06,1.91-2.97,2.76-5.52,2.76-.85,0-1.91-.21-2.55-.64-1.91-.85-3.82-3.4-4.46-5.95-.21-1.27-.21-4.67,0-4.67h6.59c7.22,0,6.8.21,6.37-1.7-.64-4.04-5.1-6.59-9.56-5.52-2.12.42-2.55.64-3.82,1.49-2.97,1.91-4.25,4.89-4.46,8.71,0,5.1,2.97,8.92,7.86,9.77,1.7.21,4.67.21,5.95-.42,1.91-.64,3.82-2.76,3.82-4.04.64-.64.21-.64-.21.21ZM173.62,112.4c1.06-1.49,2.12-2.12,3.4-2.12,2.55-.21,4.67,2.12,4.67,4.89v.85h-4.46c-2.76,0-4.67,0-4.67-.21-.42-.42.21-2.55,1.06-3.4ZM202.09,129.61c-.85,0-.85-.42,0-.64,1.49-.64,2.12-1.27,2.34-2.97.21-1.27.42-12.96.42-20.4,0-4.04,0-4.46-.42-5.31s-.64-1.06-1.49-1.27c-1.49-.64-1.27-.64,1.06-1.06,2.55-.42,4.46-.42,4.67-.21v10.2c-.21,5.52-.21,11.9-.21,14.45,0,5.52,0,5.74,1.91,6.59.64.21,1.06.64,1.06.85-.42,0-7.44,0-9.35-.21h0ZM189.98,129.4c-.85-.21-.64-.42.42-.85,1.06-.42,1.49-1.27,1.7-3.19,0-.64.21-6.37.21-12.75.21-9.77,0-11.47-.21-12.11-.42-.85-1.06-1.49-1.91-1.7-.85-.21-.85-.42-.42-.64.85-.42,5.74-.85,6.16-.64.21.21.21,1.06.21,5.31,0,2.76-.21,9.35-.21,14.66l-.21,9.56.64.85c.42.42,1.06.85,1.49,1.06s.85.42.85.42c0,.21-.85.21-4.25.21-1.91,0-4.25,0-4.46-.21ZM149.82,128.97c-3.19-.21-4.25-.42-2.34-.64,1.49-.21,2.55-1.06,3.19-2.12q.42-1.06.42-5.74v-4.67l-.85-1.7c-.85-1.7-6.8-11.05-8.5-12.96-1.06-1.27-1.91-1.91-3.19-2.12-1.06-.21-1.27-.42-1.06-.64.42-.42,14.02-.21,14.45.21.21.21,0,.21-1.49.64-.42,0-.85.42-1.27.85-.85,1.06-.64,1.91,1.27,4.89,3.61,5.74,5.31,8.29,5.52,8.5.21,0,5.52-7.86,6.16-9.35.64-1.27.64-2.34.21-3.19-.42-.85-.85-1.06-1.91-1.49-.64-.21-.85-.42-.85-.42.21-.21,9.35-.21,9.99,0,.64.21.42.42-.85.85-1.49.64-3.19,2.34-5.95,6.16-4.67,7.01-5.52,8.29-5.74,8.71-.21.85-.42,9.56-.21,11.05.42,1.91,1.7,3.19,3.61,3.61.42,0,.85.21.85.21-.43-.42-3.61-.21-11.47-.64h0ZM157.68,94.13c-10.41,0-22.74-.21-27.41-.42-4.67-.21-12.32-.21-16.79-.42s-10.41-.21-12.75-.21c-2.55,0-7.65-.21-11.26-.21-5.95-.21-7.22-.21-6.8-.42,0,0,7.22-.21,15.72-.21s19.34-.21,23.8-.21h22.31c14.02,0,14.45,0,14.45-.42,0-.64-2.55-5.74-3.82-7.65-1.27-1.91-2.97-3.82-5.95-7.22-1.06-1.27-3.4-3.82-4.89-5.52-1.49-1.7-4.67-5.52-7.22-8.29-2.34-2.76-4.67-5.52-5.31-5.95-.42-.64-2.12-2.34-3.61-4.25-1.49-1.7-2.97-3.4-3.4-3.82-.42-.42-1.27-1.49-2.12-2.34s-2.12-2.55-2.97-3.4c-.85-1.06-2.76-3.4-4.46-5.31-1.7-1.91-4.04-4.46-5.1-5.74s-2.97-3.4-4.25-4.67c-1.91-2.12-4.67-5.31-9.56-11.05-3.61-4.25-5.1-5.95-6.59-7.65-5.52-6.37-5.95-6.8-5.74-7.22.21-.21,6.59-.21,29.53,0,7.01,0,18.27.21,25.07,0,11.26,0,13.17,0,12.75.42,0,0-.85.42-1.91.64-2.12.64-5.1,2.12-6.8,3.19-1.49,1.06-3.61,3.19-4.25,4.46-.64,1.49-.85,3.82-.21,5.52.64,1.49,1.27,2.55,7.65,9.99,1.49,1.7,3.4,4.25,4.46,5.31,1.06,1.27,3.19,3.82,4.89,5.95s4.46,5.31,5.74,7.01c1.49,1.7,2.97,3.61,3.4,4.04s1.7,1.91,2.76,3.4,2.97,3.61,4.04,4.89c1.06,1.27,3.19,3.61,4.46,5.52,1.49,1.7,3.4,4.04,4.25,5.31,2.76,3.4,7.44,10.62,9.77,15.3,1.7,3.61,2.97,7.65,2.97,9.56v.85l2.55-.21h5.1c1.27.21,3.4.21,4.25.42,2.34.21,2.97.21,2.76.42-.21.64-18.06.85-49.51.64h0ZM239.7,30.6c0-.21-.21-1.06-.42-1.91-2.34-9.14-10.2-20.61-17.64-25.07-.85-.64-1.7-1.06-1.91-1.06s-.42-.21-.85-.42q-.42-.42-.21-.64c.42-.21,51.42-.21,53.12,0,1.27.21,1.49.42.21.85-5.95,2.34-11.69,5.95-18.49,11.9-6.16,5.31-10.41,10.2-12.54,14.87-.64,1.7-1.06,2.12-1.27,1.49Z"/>
</svg>