<?xml version="1.0" encoding="UTF-8"?>
<svg id="Layer_1" data-name="Layer 1" xmlns="http://www.w3.org/2000/svg" viewBox="0 0 168 22.2">
  <defs>
    <style>
      .cls-1 {
        fill: #141414;
      }

      .cls-1, .cls-2 {
        stroke-width: 0px;
      }

      .cls-2 {
        fill: #f6c817;
      }
    </style>
  </defs>
  <path class="cls-1" d="M38.09,17.76c0-.42-.27-.42-.55.14-.69,1.66-3.03,2.49-4.97,1.52-1.51-.69-2.48-1.93-3.03-3.73-.42-.96-.42-2.48-.14-2.76.14,0,1.51-.14,4.27-.14h4.14v-.82c0-1.25-.69-2.34-1.93-3.17-1.1-.69-2.76-.97-4.55-.55-1.24.28-2.07.69-3.03,1.66-1.25,1.38-1.93,3.17-1.8,5.24.14,1.8.55,2.76,1.66,4,.83.96,1.52,1.38,2.76,1.79,2.35.69,4.83.27,6.07-1.24.55-.55,1.25-1.52,1.1-1.93ZM30.64,9.48c.69-.69,1.38-.96,2.34-.96,1.24.14,2.07.96,2.49,2.48.14.55.14.82,0,.97-.14.14-5.38.27-5.8,0-.27-.42.28-1.66.97-2.49Z"/>
  <path class="cls-1" d="M72.98,10.45c-.55-.55-1.24-1.24-1.66-1.38-2.07-1.1-4.83-1.1-6.76,0-1.1.55-2.62,2.2-3.17,3.3-.42.83-.42,1.1-.42,2.35,0,2.06.55,3.45,2.07,4.82.83.69,1.66,1.25,2.62,1.52.42,0,1.38.14,2.21.14,2.34.14,3.58-.41,5.24-2.06,1.1-.97,1.66-2.07,1.79-3.45.28-2.06-.27-3.58-1.93-5.24ZM71.88,15c0,2.49-.82,4.28-2.34,5.24-1.52,1.1-2.62.82-4-.69-1.25-1.24-1.8-2.76-1.8-5.1,0-1.66.14-2.48.69-3.58,1.66-3.17,4.97-3.17,6.62,0,.69,1.24.96,2.62.82,4.13Z"/>
  <path class="cls-1" d="M1.82,20.79c-1.65-.14-2.21-.55-.97-.83l.55-.28.14-.14c.28,0,1.1-.83,1.24-1.24.14-.55.14-15.03,0-15.86S1.27.66.3.66C-.25.66.02.24.58.1S7.47-.03,8.71.1c.69.14.97.14.97.28s-.14.28-.55.28c-1.1.14-1.65.69-2.07,1.65-.14.41-.14,1.1-.14,3.72v3.17l.55.14c.28,0,2.48.14,4.83.14,4,0,4.28,0,4.41-.28.14-.41.14-4.96,0-6.07-.14-.97-.28-1.1-.69-1.65-.41-.41-.69-.69-1.1-.69-.28,0-.55-.14-.69-.14-1.1-.55,2.76-.83,7.72-.41,1.38.14,1.65.14,1.65.28s-.14.28-.55.28c-.83.14-1.52.55-1.93,1.38q-.28.55-.28,7.59c0,7.31,0,8.27.55,9.24.28.55,1.38,1.24,1.79,1.24s.69.28.55.41c-.28.28-9.24.14-9.38,0-.14-.28,0-.28.41-.41.69-.14,1.79-.97,2.07-1.52.28-.41.28-.83.28-4.14,0-2.34,0-3.59-.14-3.72s-9.52-.28-9.79-.14c-.14,0-.14,1.38-.14,3.45,0,3.86.14,4.14.97,5.24.41.41.69.69,1.24.83.41.14.69.28.69.28,0,.14-.41.14-.83.28-.97.14-5.79.14-7.31,0h0Z"/>
  <path class="cls-1" d="M41.67,20.79c-.14-.14,0-.41.28-.41.41,0,1.1-.55,1.38-.97q.28-.55.28-8.69c0-7.59,0-8.27-.28-8.69-.28-.55-.69-.97-1.24-.97-.41-.14-.55-.41-.14-.55.69-.14,1.93-.28,2.9-.41.83-.14.97,0,1.1.14,0,.14.14,4.41.14,9.52,0,9.1,0,9.38.28,9.79.14.28.55.55.97.83.41.14.69.41.69.41-.14.14-6.21.28-6.34,0Z"/>
  <path class="cls-1" d="M50.5,20.93c-.14-.14-.14-.28.14-.28.41,0,1.24-.55,1.52-.97.14-.28.28-.69.28-1.24.14-1.1.14-15.31,0-16s-.83-1.38-1.38-1.52c-.28,0-.41-.14-.41-.28s2.9-.69,3.72-.55h.55v9.1c0,4.96,0,9.38.14,9.65.14.69.55,1.38,1.24,1.52.28.14.55.28.55.28,0,.14-.41.14-3.17.14-1.66.14-3.03.14-3.17.14h0Z"/>
  <path class="cls-2" d="M160.28,21.89c-.14-.14-.28-.83-.55-1.38-2.34-7.59-2.34-7.86-2.48-7.59,0,0-.28.69-.55,1.38-.69,1.65-.83,2.07-1.1,2.48-.14.14-.55,1.38-1.1,2.62s-.97,2.34-1.1,2.48c-.28.41-.83.41-.97,0,0-.14-.55-1.65-1.1-3.59q-2.48-8.14-3.31-8.41c-.83-.41-.41-.41,1.93-.55h2.9c.69.14.69.28.14.55-.55.14-.83.55-.97.97-.14.55.14,1.52,1.1,4.41.28.97.69,2.07.69,2.34.14.41.28.69.28.69.14,0,.41-.69,1.65-3.86,1.24-3.03,1.38-3.72.83-4.28-.14-.14-.41-.41-.69-.41-.28-.14-.41-.14-.28-.28.14-.14,3.03-.28,4.55-.14,1.24.14,1.52.28.83.55-1.24.55-1.1,1.24.69,7.45.14.55.28.97.41.97,0,0,.14-.28.28-.55.14-.28.55-1.38,1.1-2.48.41-1.1.97-2.21,1.1-2.48.28-.69.41-1.79.14-2.21-.14-.14-.41-.55-.69-.69s-.41-.28-.41-.41c.14-.14,1.79-.14,3.31-.14.83,0,1.1.14,1.1.28s-.14.28-.28.28c-.83.14-1.93,1.93-3.03,4.55-.41.97-.97,2.21-1.24,2.9s-.69,1.52-.69,1.65c-.14.28-.41.97-.69,1.65-.55,1.1-.69,1.24-.97,1.24-.55.28-.69.14-.83,0h0Z"/>
  <path class="cls-2" d="M144.7,12.93c-.69-1.38-2.07-2.76-3.31-3.45-2.07-.96-4.69-.96-6.76.14-1.25.69-2.62,2.06-3.17,3.3-.55,1.25-.69,2.9-.27,4.28.27.97,1.1,2.34,1.79,2.89.69.69,1.93,1.25,2.76,1.52,1.1.28,3.31.28,4.41,0,1.1-.27,2.21-.82,3.03-1.79,1.52-1.52,1.93-2.62,1.93-4.69q0-1.1-.42-2.21ZM139.32,21.34c-1.66.82-3.31.14-4.55-1.93-1.1-1.79-1.24-5.38-.28-7.31,1.66-3.31,4.69-3.73,6.48-.83,2.07,3.17,1.24,8.55-1.66,10.07Z"/>
  <path class="cls-2" d="M110.63,18.72c-.69,1.24-1.93,1.79-3.59,1.79-.55,0-1.24-.14-1.66-.42-1.24-.55-2.48-2.21-2.89-3.86-.14-.82-.14-3.03,0-3.03h4.28c4.69,0,4.41.14,4.13-1.1-.42-2.62-3.31-4.28-6.21-3.58-1.38.27-1.66.41-2.49.96-1.93,1.24-2.75,3.17-2.89,5.65,0,3.31,1.93,5.8,5.1,6.35,1.1.14,3.04.14,3.86-.28,1.25-.41,2.49-1.79,2.49-2.62.42-.42.14-.42-.14.14ZM103.46,10.31c.69-.97,1.38-1.38,2.21-1.38,1.66-.14,3.03,1.38,3.03,3.17v.55h-2.89c-1.79,0-3.04,0-3.04-.14-.27-.28.14-1.66.69-2.21Z"/>
  <path class="cls-2" d="M121.94,21.48c-.55,0-.55-.28,0-.41.97-.41,1.38-.83,1.52-1.93.14-.83.28-8.41.28-13.24,0-2.62,0-2.9-.28-3.45s-.41-.69-.97-.83c-.97-.41-.83-.41.69-.69,1.65-.28,2.9-.28,3.03-.14v6.62c-.14,3.59-.14,7.72-.14,9.38,0,3.59,0,3.72,1.24,4.28.41.14.69.41.69.55-.28,0-4.83,0-6.07-.14h0Z"/>
  <path class="cls-2" d="M114.08,21.34c-.55-.14-.41-.28.28-.55.69-.28.97-.83,1.1-2.07,0-.41.14-4.14.14-8.27.14-6.34,0-7.45-.14-7.86-.28-.55-.69-.97-1.24-1.1-.55-.14-.55-.28-.28-.41.55-.28,3.72-.55,4-.41.14.14.14.69.14,3.45,0,1.79-.14,6.07-.14,9.52l-.14,6.21.41.55c.28.28.69.55.97.69s.55.28.55.28c0,.14-.55.14-2.76.14-1.24,0-2.76,0-2.9-.14Z"/>
  <path class="cls-2" d="M88.01,21.07c-2.07-.14-2.76-.28-1.52-.41.97-.14,1.65-.69,2.07-1.38q.28-.69.28-3.72v-3.03l-.55-1.1c-.55-1.1-4.41-7.17-5.52-8.41-.69-.83-1.24-1.24-2.07-1.38-.69-.14-.83-.28-.69-.41.28-.28,9.1-.14,9.38.14.14.14,0,.14-.97.41-.28,0-.55.28-.83.55-.55.69-.41,1.24.83,3.17,2.34,3.72,3.45,5.38,3.59,5.52.14,0,3.59-5.1,4-6.07.41-.83.41-1.52.14-2.07-.28-.55-.55-.69-1.24-.97-.41-.14-.55-.28-.55-.28.14-.14,6.07-.14,6.48,0,.41.14.28.28-.55.55-.97.41-2.07,1.52-3.86,4-3.03,4.55-3.59,5.38-3.72,5.65-.14.55-.28,6.21-.14,7.17.28,1.24,1.1,2.07,2.34,2.34.28,0,.55.14.55.14-.28-.28-2.34-.14-7.45-.41h0Z"/>
</svg>